<?xml version="1.0" encoding="UTF-8" standalone="no"?> <svg id="Capa_1" enable-background="new 0 0 512 512" height="512" viewBox="0 0 512 512" width="512" xmlns="http://www.w3.org/2000/svg"><g><path d="m434.487 403.638h-311.124c-.873 0-1.745-.076-2.604-.228l-108.363-19.107c-3.918-.69-7.401-2.91-9.683-6.168-2.282-3.259-3.176-7.291-2.485-11.208l62.513-354.531c.693-3.932 2.926-7.425 6.202-9.706 3.277-2.281 7.329-3.161 11.256-2.447l356.973 64.956c7.131 1.298 12.314 7.509 12.314 14.758v308.682c.001 8.283-6.715 14.999-14.999 14.999z" fill="#ffe278"/><path d="m437.172 65.198-181.172-32.967v371.406h178.486c8.284 0 15-6.716 15-15v-308.681c.001-7.248-5.183-13.46-12.314-14.758z" fill="#ffd845"/><path d="m142.469 512c-3.058 0-6.064-.935-8.604-2.713-3.259-2.282-5.478-5.765-6.169-9.683l-62.512-354.53c-1.438-8.158 4.01-15.938 12.168-17.376l354.53-62.513c8.162-1.435 15.938 4.009 17.377 12.167l62.514 354.531c.69 3.917-.203 7.949-2.485 11.208-2.281 3.259-5.765 5.478-9.683 6.168l-354.531 62.513c-.866.153-1.738.228-2.605.228z" fill="#93c6ec"/><path d="m449.259 77.351c-1.438-8.158-9.215-13.602-17.377-12.167l-175.882 31.013v396.016l243.604-42.954c3.918-.69 7.401-2.91 9.683-6.168 2.282-3.259 3.176-7.291 2.485-11.208z" fill="#6ba7ff"/><g><path d="m159.864 265.23c-7.143 0-13.472-5.12-14.755-12.398-1.438-8.158 4.01-15.938 12.168-17.376l236.355-41.676c8.165-1.438 15.939 4.009 17.377 12.167s-4.01 15.938-12.168 17.376l-236.354 41.677c-.881.155-1.758.23-2.623.23z" fill="#556e82"/></g><g><path d="m170.283 324.318c-7.143 0-13.472-5.12-14.755-12.398-1.438-8.158 4.01-15.938 12.168-17.376l236.355-41.676c8.164-1.438 15.938 4.009 17.377 12.167 1.438 8.158-4.01 15.938-12.168 17.376l-236.355 41.676c-.88.156-1.757.231-2.622.231z" fill="#556e82"/></g><g><path d="m180.702 383.407c-7.143 0-13.472-5.12-14.755-12.398-1.438-8.158 4.01-15.938 12.168-17.376l157.569-27.784c8.164-1.439 15.938 4.009 17.377 12.167 1.438 8.159-4.01 15.938-12.168 17.377l-157.569 27.784c-.88.155-1.757.23-2.622.23z" fill="#556e82"/></g><g fill="#3c4655"><path d="m393.632 193.78-137.632 24.268v30.462l142.841-25.187c8.158-1.438 13.606-9.218 12.168-17.376-1.437-8.158-9.212-13.605-17.377-12.167z"/><path d="m404.051 252.868-148.051 26.106v30.462l153.26-27.024c8.158-1.438 13.606-9.218 12.168-17.376-1.438-8.159-9.213-13.606-17.377-12.168z"/><path d="m335.685 325.849-79.685 14.05v30.462l84.894-14.969c8.158-1.438 13.606-9.218 12.168-17.377-1.439-8.157-9.213-13.605-17.377-12.166z"/></g></g></svg>